<svg xmlns="http://www.w3.org/2000/svg" version="1.1" xmlns:xlink="http://www.w3.org/1999/xlink" width="512" height="512" x="0" y="0" viewBox="0 0 512 512" style="enable-background:new 0 0 512 512" xml:space="preserve" class=""><g><g fill-rule="evenodd" clip-rule="evenodd"><path fill="#f3c478" d="M21.992 256c0-114.638 85.465-211.641 199.255-225.668l1.122-.138v107.322l-.772.181c-54.839 12.83-93.747 61.96-93.747 118.303s38.908 105.473 93.747 118.303l.772.181v107.322l-1.122-.138c-53.815-6.634-103.269-32.342-139.815-72.339C43.028 367.3 21.992 312.931 21.992 256zm284.59 54.414c30.694-30.694 30.694-80.466 0-111.16-30.695-30.694-80.465-30.695-111.16 0-30.694 30.694-30.694 80.465 0 111.16 30.694 30.694 80.465 30.694 111.16 0zm63.835-110.498 76.763-76.763.686.962a226.831 226.831 0 0 1 30.145 58.82c11.595 34.187 14.835 70.722 9.546 106.426-4.722 31.874-16.149 62.454-33.591 89.554l-.671 1.043-78.124-78.125.246-.613c6.553-16.308 9.464-33.924 8.559-51.473-.884-17.133-5.381-33.922-13.224-49.183zm-130.875 46.152c-5.932-5.932-1.665-16.037 6.635-16.037h21.135a6 6 0 1 0 0-12h-10.959v-9.139a6 6 0 1 0-12 0v9.199l-.874.111a21.373 21.373 0 0 0-12.422 6.112c-13.453 13.453-3.859 36.522 15.119 36.522h9.648a9.374 9.374 0 0 1 6.636 2.766c5.931 5.931 1.665 16.037-6.636 16.037H234.69a6 6 0 1 0 0 12h9.663v9.139a6 6 0 1 0 12 0v-9.126l.932-.063c5.167-.351 10-2.573 13.659-6.233 13.453-13.453 3.859-36.522-15.12-36.522h-9.648a9.377 9.377 0 0 1-6.634-2.766z" opacity="1" data-original="#78bff3" class=""></path><path fill="#ea911a" d="M257.354 292.586v8.192a7 7 0 1 1-14 0v-8.14h-8.663a7 7 0 1 1 0-14h21.135c7.333 0 11.287-8.972 5.929-14.331a8.376 8.376 0 0 0-5.929-2.474h-9.648c-19.751 0-29.99-24.064-15.826-38.228a22.373 22.373 0 0 1 13.003-6.397v-8.318a7 7 0 1 1 14 0v8.14h9.959a7 7 0 1 1 0 14h-21.135c-7.332 0-11.287 8.972-5.928 14.331a8.373 8.373 0 0 0 5.928 2.474h9.648c19.752 0 29.991 24.065 15.827 38.228-3.721 3.719-8.738 6.144-14.3 6.523zm-29.587 202.79 7.601.678V363.805l-5.742-1.055c-51.132-9.393-88.777-54.106-88.777-106.75s37.644-97.356 88.777-106.75l5.742-1.055V15.946l-7.601.678C104.387 27.634 8.992 131.345 8.992 256c0 124.656 95.396 228.368 218.775 239.376zM82.17 408.655c35.479 38.829 84.3 65.253 139.199 72.021V375.277c-54.91-12.847-94.52-62.076-94.52-119.277s39.61-106.43 94.52-119.277V31.325C108.711 45.213 22.991 141.229 22.991 256c0 58.849 22.421 112.427 59.179 152.655zm336.559 17.896c-39.603 39.318-91.43 63.801-147.75 68.825l-7.601.678V363.805l5.742-1.055c21.492-3.948 41.031-14.259 56.454-29.464l4.943-4.873 93.192 93.192zm-73.85 34.745a226.855 226.855 0 0 0 58.949-39.776l-73.546-73.547c-15.054 13.247-33.224 22.697-52.904 27.305v105.399a224.965 224.965 0 0 0 67.501-19.381zm108.506-351.519-4.869-6.342L354.3 197.65l2.643 4.631c13.145 23.035 17.381 50.35 11.818 76.462-2.242 10.524-4.873 16.761-9.032 26.032l95.387 95.388 4.775-6.846c59.808-85.757 57.171-200.609-6.506-283.54zm23.678 73.479a225.69 225.69 0 0 0-30.012-58.561l-75.412 75.412c16.167 31.458 17.904 68.635 4.704 101.486l76.78 76.781c37.137-57.696 46.078-129.85 23.94-195.118zM270.979 16.625c52.505 4.684 101.258 26.343 139.805 61.302l5.448 4.941-93.18 93.18c-9.633-7.9-16.038-12.97-28.003-18.528-11.639-5.407-19.48-7.084-31.673-9.324V15.946zm69.254 31.959A226.526 226.526 0 0 1 395.9 83.405l-73.928 73.928c-13.304-9.812-28.381-16.824-44.594-20.612V31.323a224.962 224.962 0 0 1 62.855 17.261zm-89.231 114.649c-50.588 0-91.601 41.013-91.601 91.601s41.013 91.601 91.601 91.601 91.601-41.013 91.601-91.601-41.013-91.601-91.601-91.601zm54.873 36.728c-30.305-30.304-79.441-30.304-109.746 0-30.304 30.304-30.304 79.442 0 109.746s79.442 30.304 109.746 0 30.304-79.442 0-109.746z" opacity="1" data-original="#1a92ea" class=""></path></g></g></svg>